<mxfile host="app.diagrams.net" modified="2023-10-16T11:15:55.603Z" agent="Mozilla/5.0 (Windows NT 10.0; Win64; x64) AppleWebKit/537.36 (KHTML, like Gecko) Chrome/118.0.0.0 Safari/537.36" version="21.6.1" etag="TLMQ9RK59NdciKr3pqWw" type="github">
  <diagram name="第 1 页" id="tzhNpH3wn8uJp7G78d_e">
    <mxGraphModel>
      <root>
        <mxCell id="0" />
        <mxCell id="1" parent="0" />
      </root>
    </mxGraphModel>
  </diagram>
</mxfile>
